<?xml version="1.0" standalone="no"?>
<!DOCTYPE svg PUBLIC "-//W3C//DTD SVG 20010904//EN"
 "http://www.w3.org/TR/2001/REC-SVG-20010904/DTD/svg10.dtd">
<svg version="1.0" xmlns="http://www.w3.org/2000/svg"
 width="653.000000pt" height="691.000000pt" viewBox="0 0 653.000000 691.000000"
 preserveAspectRatio="xMidYMid meet">

<g transform="translate(0.000000,691.000000) scale(0.100000,-0.100000)"
fill="#000000" stroke="none">
<path d="M3790 6660 c0 -5 -7 -10 -15 -10 -8 0 -15 -4 -15 -10 0 -5 5 -10 11
-10 6 0 9 -6 7 -12 -3 -7 -13 -13 -23 -13 -24 0 -62 -69 -41 -73 8 -2 16 -13
18 -25 4 -26 36 -35 43 -13 3 9 8 24 12 34 3 9 5 23 4 30 -1 6 2 12 7 12 5 0
12 8 15 18 3 9 10 32 15 50 10 30 9 32 -14 32 -13 0 -24 -4 -24 -10z"/>
<path d="M1355 6575 c-38 -12 -71 -27 -73 -33 -2 -7 -15 -7 -38 0 -54 15 -67
6 -59 -42 7 -41 1 -47 -44 -40 -8 1 -17 -2 -20 -7 -10 -13 -62 -38 -111 -53
-40 -12 -114 -59 -131 -83 -4 -5 -16 -6 -27 -3 -24 8 -37 -20 -33 -71 2 -24
-2 -33 -13 -33 -8 0 -24 -13 -36 -30 l-21 -30 21 -30 c12 -16 30 -30 41 -30
25 0 25 -31 1 -53 -10 -10 -28 -17 -39 -17 -32 0 -56 -35 -56 -81 0 -42 15
-61 39 -52 7 3 16 13 19 24 4 10 12 19 19 19 7 0 25 9 39 21 15 11 34 19 44
17 13 -2 17 2 15 17 -16 89 -15 95 14 120 16 14 45 28 64 31 60 10 70 15 70
33 0 19 52 37 71 25 18 -11 8 -58 -17 -85 -16 -17 -26 -40 -27 -61 -2 -33 -2
-33 48 -36 44 -3 51 0 52 17 1 10 -7 27 -17 36 -21 19 -17 41 12 56 14 7 23 7
34 -2 18 -14 31 -5 17 13 -5 7 -9 22 -9 33 1 17 9 20 54 23 35 2 55 8 59 18 6
16 29 19 38 4 3 -5 -1 -22 -9 -37 -13 -27 -12 -30 15 -57 22 -22 41 -30 79
-34 27 -2 50 -1 50 2 0 23 -25 46 -54 52 -19 3 -37 12 -40 20 -3 8 -12 14 -21
14 -33 0 -12 18 28 23 50 7 89 -1 100 -19 4 -7 32 -18 62 -25 48 -11 60 -10
96 6 41 19 41 19 86 -5 39 -21 48 -22 78 -11 25 9 40 9 54 1 14 -7 34 -7 67 0
55 13 68 5 36 -21 -13 -10 -21 -23 -17 -29 8 -12 35 -13 35 -1 0 5 21 8 48 7
l47 -1 1 -37 c0 -21 3 -41 7 -45 4 -3 7 -19 7 -34 0 -15 7 -34 15 -43 14 -14
13 -17 -10 -32 -14 -9 -34 -14 -47 -11 -14 4 -30 0 -42 -11 -14 -12 -20 -14
-23 -4 -5 14 -59 17 -67 3 -4 -5 -2 -11 4 -13 23 -8 -5 -48 -47 -69 -24 -12
-60 -36 -80 -55 -20 -19 -39 -34 -43 -34 -3 0 -19 -13 -35 -30 -16 -16 -38
-30 -50 -30 -12 0 -30 -9 -40 -20 -10 -11 -29 -18 -44 -18 -14 1 -45 -2 -68
-6 -35 -6 -44 -5 -49 8 -8 21 -22 21 -26 0 -2 -11 -16 -17 -47 -19 -24 -2 -47
-8 -50 -14 -4 -5 -35 -12 -70 -14 -75 -5 -86 -17 -77 -83 4 -33 1 -44 -8 -44
-21 0 -38 -27 -31 -50 4 -13 15 -20 31 -20 31 0 31 -16 -1 -24 -14 -4 -25 -14
-25 -22 0 -10 6 -14 14 -11 20 8 38 -37 26 -68 -13 -35 -27 -31 -34 10 -12 60
-45 55 -46 -7 0 -45 10 -58 45 -58 24 0 39 -7 55 -27 24 -31 11 -47 -27 -32
-24 9 -53 3 -53 -12 0 -5 -11 -14 -25 -19 -30 -11 -35 -50 -7 -50 27 0 43 -20
32 -40 -7 -13 -5 -22 5 -30 8 -7 15 -24 15 -39 0 -15 4 -31 9 -37 5 -5 11 -26
12 -46 3 -32 -2 -41 -36 -71 -38 -33 -39 -35 -24 -58 19 -29 31 -107 18 -115
-5 -3 -9 6 -9 21 0 26 -54 95 -74 95 -6 0 -25 15 -41 34 -23 27 -33 32 -47 25
-23 -13 -25 -91 -3 -113 12 -11 14 -25 10 -50 -6 -27 -2 -41 17 -66 22 -30 26
-32 70 -27 29 4 50 2 54 -5 4 -6 -1 -8 -15 -3 -15 4 -21 2 -21 -8 0 -9 -15
-19 -37 -24 -31 -7 -38 -13 -38 -33 0 -18 9 -29 32 -40 39 -18 41 -32 8 -58
-31 -25 -32 -46 -3 -66 28 -20 58 -20 58 -1 0 22 14 19 63 -15 41 -28 44 -32
45 -79 0 -34 -3 -51 -14 -55 -9 -4 -14 2 -15 17 0 12 -16 35 -35 51 -29 24
-37 26 -50 15 -45 -37 -57 -127 -21 -166 17 -20 18 -26 7 -53 -12 -28 -11 -33
10 -53 15 -13 22 -16 18 -6 -11 27 24 55 77 61 62 7 75 2 75 -26 0 -29 -26
-52 -69 -60 -53 -10 -63 -22 -46 -56 8 -16 12 -36 9 -44 -4 -11 -1 -16 10 -16
9 0 16 -6 16 -12 0 -18 78 -50 83 -35 4 12 89 19 120 11 29 -9 21 -44 -12 -50
-34 -7 -71 -38 -71 -59 0 -8 -16 -25 -35 -37 -32 -22 -51 -46 -41 -55 2 -2 23
-5 47 -6 41 -2 44 0 49 28 3 17 10 30 17 30 6 0 15 3 19 7 15 15 42 8 65 -17
13 -14 39 -32 57 -40 17 -8 32 -21 32 -29 0 -18 -41 -31 -71 -23 -22 6 -59
-26 -59 -51 0 -18 29 -41 51 -42 9 0 23 9 30 20 12 16 29 21 102 25 94 5 120
-5 129 -50 2 -11 12 -21 23 -23 24 -5 55 -31 55 -47 0 -6 11 -18 25 -25 28
-15 32 -32 10 -50 -19 -16 -20 -50 -1 -50 20 0 29 -16 21 -40 -13 -42 -85 -7
-85 41 0 16 -5 29 -10 29 -6 0 -15 11 -20 25 -6 17 -17 25 -33 25 -13 0 -33
11 -45 25 -24 28 -47 24 -56 -8 -9 -33 -7 -37 9 -37 8 0 23 -4 33 -9 9 -5 30
-13 47 -18 27 -8 30 -12 27 -45 -8 -87 68 -154 146 -129 21 7 49 11 63 9 20
-2 24 -8 23 -38 0 -40 9 -50 49 -50 22 0 30 6 38 30 6 16 14 30 18 30 13 0 51
37 51 49 0 6 7 11 16 11 9 0 14 -7 13 -17 -3 -27 11 -53 29 -53 8 0 12 3 9 6
-9 9 33 45 44 38 15 -9 10 -38 -11 -64 -24 -31 -25 -56 -2 -65 15 -6 16 -7 1
-18 -24 -18 -34 -58 -18 -68 23 -15 52 -10 75 12 18 17 40 22 108 26 74 5 89
3 121 -16 20 -11 44 -21 54 -21 22 0 58 -26 49 -35 -3 -4 -31 -8 -61 -9 -41
-2 -63 -9 -89 -28 -18 -14 -43 -28 -55 -32 -12 -4 -33 -20 -47 -37 -15 -18
-34 -29 -50 -29 -14 0 -28 -5 -31 -10 -3 -5 -15 -10 -25 -10 -10 0 -32 -11
-48 -25 -23 -19 -40 -25 -74 -24 -27 1 -54 -4 -70 -15 -23 -15 -31 -15 -88 -2
-78 18 -93 14 -75 -21 7 -14 11 -32 8 -40 -5 -14 -14 -13 -80 10 -47 16 -53 0
-14 -32 25 -20 32 -33 28 -46 -8 -20 -51 -14 -79 12 -20 17 -48 11 -48 -11 0
-23 -72 -73 -116 -80 -45 -8 -140 18 -172 47 -13 12 -37 17 -79 17 -67 0 -86
13 -98 68 -5 25 -12 32 -29 32 -29 0 -56 29 -56 59 0 17 4 21 15 17 25 -9 65
33 65 70 0 18 -4 36 -10 39 -5 3 -10 15 -10 26 0 10 -5 19 -11 19 -6 0 -9 7
-6 15 6 14 -41 45 -69 45 -12 0 -28 46 -23 66 1 5 -1 21 -5 37 -5 15 -3 55 4
91 7 37 8 70 4 78 -20 31 -31 77 -20 83 6 2 0 2 -14 -2 -36 -9 -49 -32 -50
-83 0 -57 -22 -40 -29 22 -1 4 -13 6 -28 5 -23 -2 -28 3 -37 34 -6 21 -19 46
-29 57 -13 14 -16 28 -11 47 5 20 9 24 18 14 8 -8 8 -13 -1 -16 -21 -8 -15
-22 7 -16 11 3 20 1 20 -5 0 -11 117 -15 124 -4 10 16 -7 52 -24 52 -11 0 -22
12 -29 31 -6 18 -26 50 -44 73 -45 57 -67 93 -67 111 0 8 -6 15 -12 15 -7 0
-22 14 -33 30 -11 16 -23 30 -27 30 -5 0 -8 6 -8 13 0 8 -11 19 -25 25 -25 12
-25 11 -25 -42 0 -40 5 -57 20 -71 11 -10 20 -26 20 -35 0 -29 30 -90 46 -97
9 -3 20 0 24 8 5 7 13 10 17 5 4 -5 3 -11 -3 -13 -7 -2 -10 -19 -8 -41 3 -20
0 -44 -5 -52 -8 -12 -14 -11 -34 8 -21 20 -25 21 -31 7 -3 -9 -6 -23 -6 -32 0
-15 24 -75 41 -103 5 -8 12 -22 16 -30 20 -47 34 -77 42 -90 5 -8 12 -27 16
-42 3 -16 12 -28 19 -28 19 0 25 -21 14 -50 -6 -15 -12 -20 -15 -12 -3 6 -8
12 -12 12 -10 0 -11 -40 -1 -80 32 -128 32 -129 92 -175 48 -37 58 -50 58 -75
0 -17 9 -48 20 -70 11 -22 20 -50 20 -63 0 -13 8 -32 19 -43 28 -31 42 -62 46
-104 2 -22 10 -48 16 -58 13 -21 12 -24 -26 -87 -13 -22 -34 -58 -46 -79 l-21
-39 21 -17 c23 -17 20 -50 -4 -50 -11 0 -25 -20 -25 -36 0 -3 10 -8 22 -13 22
-8 76 15 64 27 -11 10 16 42 34 42 26 0 25 -15 -2 -34 -26 -19 -14 -38 19 -30
17 5 22 16 28 62 7 57 26 92 52 92 7 0 26 18 41 40 27 39 45 49 57 30 8 -13
45 -13 45 0 0 6 10 10 22 10 21 0 21 -1 6 -17 -9 -9 -27 -17 -40 -18 -19 -2
-22 -7 -20 -29 2 -15 -1 -33 -6 -39 -5 -7 -12 -24 -16 -39 -3 -16 -18 -32 -34
-40 -21 -10 -28 -21 -30 -51 -4 -47 9 -64 54 -73 59 -11 100 3 123 42 16 27
25 33 43 29 13 -3 33 -6 45 -8 12 -2 25 -6 28 -9 9 -9 -47 -42 -90 -53 -24 -7
-44 -20 -51 -33 -13 -27 -99 -74 -128 -70 -13 2 -29 18 -41 43 -14 28 -20 35
-23 22 -2 -9 -10 -17 -17 -17 -15 0 -65 -60 -65 -78 0 -7 -9 -12 -20 -12 -11
0 -20 5 -20 10 0 6 -9 10 -20 10 -16 0 -20 7 -20 34 0 29 -3 33 -20 29 -31 -8
-50 -41 -43 -74 3 -18 1 -29 -6 -29 -6 0 -11 -11 -11 -25 0 -17 5 -25 18 -25
10 0 23 -5 30 -12 6 -6 32 -10 58 -9 47 1 84 -18 84 -43 0 -20 -39 -46 -69
-46 -15 0 -36 -9 -46 -20 -11 -12 -31 -20 -52 -20 -25 0 -33 -4 -33 -18 0 -9
9 -23 20 -30 11 -7 20 -21 20 -31 0 -11 5 -23 10 -26 23 -14 6 -31 -48 -48
-77 -24 -94 -23 -90 6 2 17 10 22 36 23 42 1 48 9 32 38 -12 23 -50 43 -50 26
0 -4 -16 -4 -36 0 -37 9 -77 0 -89 -20 -3 -5 -24 -19 -45 -30 -43 -22 -70 -67
-70 -116 0 -18 -4 -36 -10 -39 -5 -3 -10 -19 -10 -35 0 -30 5 -34 75 -46 22
-4 43 -11 47 -17 9 -14 -2 -37 -17 -37 -8 0 -11 -8 -8 -19 3 -12 -4 -30 -20
-47 -29 -31 -27 -64 5 -127 25 -49 18 -67 -25 -67 -25 0 -42 -8 -65 -32 -17
-18 -39 -39 -48 -47 -30 -25 9 -41 98 -41 67 0 85 4 133 30 47 25 55 27 53 13
-2 -12 9 -23 35 -36 30 -14 38 -23 35 -40 -3 -19 -16 -25 -88 -44 -47 -12 -98
-20 -113 -17 -35 7 -154 -15 -167 -31 -6 -7 -2 -24 10 -48 26 -48 26 -98 1
-114 -16 -10 -18 -18 -12 -46 10 -43 93 -128 150 -152 l43 -19 -4 -48 c-3 -27
-1 -51 3 -54 5 -3 9 -14 9 -25 0 -11 7 -19 17 -19 9 0 41 -8 71 -17 61 -20
101 -65 80 -90 -9 -11 90 -13 558 -11 l569 3 3 50 c2 30 9 53 18 58 8 4 14 15
14 23 0 8 5 22 11 32 12 20 -5 102 -21 102 -5 0 -6 -7 -3 -17 4 -11 3 -14 -6
-9 -7 5 -9 15 -5 25 4 9 6 28 5 43 -1 23 4 29 31 36 24 6 34 15 40 38 4 16 17
40 29 53 19 20 28 22 65 17 30 -4 45 -1 54 9 7 8 18 15 26 15 7 0 18 9 24 21
9 16 14 18 25 9 8 -7 19 -9 25 -5 6 4 25 8 41 9 17 1 34 7 37 13 8 12 47 33
61 33 19 0 12 -31 -19 -75 -44 -64 -58 -75 -93 -75 -18 -1 -44 -11 -61 -24
-27 -23 -28 -24 -8 -30 11 -4 23 -14 26 -22 5 -12 2 -15 -10 -10 -13 5 -15 0
-11 -29 5 -34 -5 -47 -17 -22 -4 6 -4 2 -2 -11 7 -35 -30 -72 -70 -72 -39 0
-54 -21 -54 -75 0 -38 22 -57 43 -36 12 12 47 15 47 3 0 -4 -11 -19 -25 -34
-14 -15 -25 -32 -25 -38 0 -20 37 -10 61 18 l24 27 3 -28 3 -28 72 3 c58 2 71
6 69 18 -2 11 1 11 11 -2 12 -15 30 -18 106 -18 55 0 100 5 112 13 17 9 23 9
26 0 5 -14 73 -18 73 -5 0 4 -5 13 -11 19 -7 7 -1 19 20 41 17 17 31 39 31 49
0 20 18 43 33 43 5 0 1 -7 -7 -16 -37 -36 -3 -47 44 -14 36 26 64 84 56 121
-3 15 -1 31 4 34 6 3 10 19 10 36 0 16 4 29 9 29 5 0 11 10 13 23 2 14 9 21
20 19 14 -2 16 5 11 55 l-6 58 31 -30 c31 -30 31 -31 26 -105 -6 -65 -4 -78
13 -99 l19 -23 26 39 c14 21 29 54 32 73 16 80 47 117 87 105 22 -7 26 -35 5
-35 -22 0 -46 -83 -36 -120 5 -17 6 -38 3 -47 -5 -13 -2 -13 25 1 30 15 31 15
25 -1 -5 -15 -3 -16 8 -6 7 7 17 13 21 13 12 0 10 -48 -2 -55 -5 -3 -10 -13
-10 -21 0 -8 -10 -36 -21 -62 -19 -41 -23 -44 -34 -28 -10 13 -14 14 -18 4 -2
-7 -9 3 -14 22 l-10 35 -8 -27 c-9 -37 -26 -35 -49 3 l-18 31 -16 -33 c-8 -19
-21 -47 -29 -64 -37 -76 -37 -75 12 -75 39 0 47 4 57 25 12 27 28 24 28 -6 0
-18 8 -19 174 -19 106 0 186 5 206 12 26 9 35 9 38 0 2 -7 24 -12 53 -12 l49
0 -20 20 c-11 11 -20 25 -20 30 0 6 -15 18 -32 26 -31 14 -28 14 60 10 54 -3
90 -1 86 5 -3 5 15 9 41 9 43 0 86 -18 110 -47 6 -6 26 -16 46 -21 35 -9 35
-9 31 20 -3 19 -13 34 -28 40 -13 6 -24 19 -24 28 0 29 -79 88 -100 75 -6 -3
-10 -22 -10 -41 0 -30 -3 -34 -27 -34 -16 0 -35 -4 -42 -9 -16 -10 -71 22 -71
41 0 6 -15 26 -34 44 -37 36 -63 37 -68 1 -2 -15 -13 -23 -38 -28 -19 -4 -36
-12 -38 -18 -11 -32 -82 15 -82 53 0 9 -5 14 -10 11 -6 -3 -10 -14 -10 -23 0
-9 -7 -30 -15 -46 -8 -15 -15 -41 -15 -57 0 -36 -22 -38 -40 -4 -10 20 -11 28
-2 37 7 7 12 26 12 43 0 18 8 39 19 49 10 9 21 35 24 57 3 22 17 59 32 81 l27
40 -36 29 c-28 24 -35 38 -38 71 -3 38 -6 43 -35 50 -37 10 -43 24 -13 33 28
9 25 29 -11 64 -37 37 -34 52 12 64 48 12 55 22 39 54 -7 16 -12 38 -11 49 2
23 -20 37 -43 28 -8 -3 -16 4 -20 18 -4 17 0 28 17 40 43 34 52 47 66 94 8 27
20 60 28 74 7 14 13 32 13 41 0 9 6 16 13 16 6 0 18 2 26 4 21 6 26 -29 7 -50
-9 -9 -21 -32 -27 -49 -6 -18 -17 -32 -25 -32 -19 0 -19 -74 1 -94 8 -8 15
-21 15 -29 0 -8 9 -22 20 -32 11 -10 20 -26 20 -35 0 -9 5 -21 12 -28 29 -29
131 1 150 43 14 31 42 34 33 4 -5 -13 -3 -19 3 -15 5 3 16 -1 23 -10 9 -11 22
-14 44 -10 19 4 46 0 66 -8 23 -10 39 -11 52 -5 13 7 19 6 23 -6 3 -8 13 -15
20 -15 8 0 18 -10 23 -22 29 -78 38 -119 34 -149 -11 -77 -9 -93 12 -98 22 -6
27 -37 8 -49 -21 -13 -26 -58 -8 -76 9 -9 12 -16 6 -16 -18 0 -26 5 -23 13 1
5 -7 11 -18 14 -11 3 -20 10 -20 15 0 5 -4 6 -10 3 -5 -3 -10 -17 -10 -30 0
-26 46 -65 75 -65 22 0 88 57 75 65 -5 3 -7 38 -5 80 l5 75 -27 1 c-21 1 -23
3 -8 6 11 3 24 9 29 14 6 5 18 9 27 9 13 0 20 -16 29 -65 10 -54 16 -65 32
-65 11 0 22 8 25 18 2 9 16 25 30 36 33 24 51 9 35 -31 -6 -15 -14 -52 -17
-80 -7 -50 -6 -53 20 -63 39 -15 43 -14 70 31 22 33 29 38 41 29 8 -7 14 -25
14 -40 0 -31 23 -55 45 -47 22 9 47 -31 33 -56 -9 -18 -8 -19 23 -14 19 3 53
2 76 -2 33 -6 40 -5 36 6 -3 7 0 13 5 13 7 0 5 11 -4 28 -12 24 -12 28 3 40
13 9 14 15 5 24 -7 7 -12 22 -12 35 0 24 -26 43 -59 43 -16 0 -21 -6 -21 -25
0 -18 -5 -25 -20 -25 -20 0 -26 11 -12 24 4 4 7 26 7 49 0 35 4 43 28 55 18 9
27 21 27 36 0 13 6 29 14 36 21 16 4 49 -39 77 -55 36 -66 62 -71 160 -6 137
-9 151 -37 179 -19 19 -27 37 -27 63 0 36 -2 38 -54 55 -31 11 -63 30 -77 47
-17 21 -33 29 -55 29 -17 0 -37 7 -44 16 -21 24 7 42 70 45 85 3 115 29 72 61
-9 7 -33 42 -51 78 -19 36 -38 66 -42 68 -4 2 -19 14 -34 28 -26 24 -65 33
-65 14 0 -14 -47 -12 -59 3 -6 6 -22 27 -37 44 -14 18 -39 40 -54 50 -17 10
-32 29 -35 45 -4 15 -11 28 -17 28 -6 0 -4 8 5 18 10 10 17 23 17 28 0 5 -24
31 -54 59 -54 50 -55 50 -48 95 6 37 11 46 30 48 32 5 30 42 -2 42 -19 0 -25
7 -30 35 -4 20 -16 39 -28 46 -11 6 -16 14 -11 18 19 12 33 50 33 87 0 21 7
46 17 56 15 17 15 18 -10 18 -34 0 -40 12 -28 55 7 28 6 38 -6 50 -8 8 -18 15
-23 15 -5 0 -7 22 -4 49 3 35 0 52 -11 61 -8 7 -15 23 -15 35 0 45 -13 85 -29
90 -9 3 -31 19 -50 36 -33 32 -134 89 -157 89 -6 0 -15 7 -18 16 -5 13 -1 14
22 9 16 -3 49 1 73 9 56 18 364 22 385 5 20 -16 110 -3 169 26 33 15 59 21 81
18 17 -3 41 0 53 6 17 10 29 7 64 -12 l43 -24 24 26 c13 14 24 29 25 34 0 4
13 18 29 30 23 19 27 27 19 42 -7 12 -13 14 -17 6 -5 -8 -13 -8 -27 -1 -25 14
-25 60 2 94 17 22 19 33 13 73 -5 28 -10 39 -12 28 -2 -11 -10 -33 -17 -50 -7
-16 -15 -38 -18 -47 -4 -12 -17 -17 -44 -16 -45 1 -65 -3 -75 -17 -4 -6 -23
-5 -50 4 -24 7 -63 14 -88 16 -25 1 -62 9 -82 19 -23 10 -64 16 -108 16 -38 0
-70 3 -70 8 0 4 -18 6 -41 4 -31 -3 -46 1 -64 18 -19 18 -29 20 -61 14 -22 -3
-46 -10 -54 -14 -17 -9 -50 5 -50 22 0 6 10 8 25 4 18 -5 27 -1 35 14 8 15 21
20 53 20 48 1 80 20 75 47 -2 10 2 17 10 16 6 -2 12 2 12 7 0 6 -5 10 -11 10
-7 0 0 9 14 20 14 11 29 20 34 20 5 0 18 6 28 14 16 12 17 16 6 30 -17 20 -49
21 -71 1 -13 -12 -23 -13 -43 -6 -23 9 -26 15 -21 39 4 19 -1 42 -15 68 -15
27 -21 33 -21 19 0 -17 -2 -17 -10 -5 -5 8 -10 18 -10 23 0 10 49 30 80 31 20
1 24 6 22 23 -2 17 1 20 17 16 23 -6 37 17 27 44 -6 14 -8 14 -22 -5 -19 -27
-40 -28 -54 -2 -12 23 -3 37 38 59 15 8 22 21 22 43 0 24 4 29 18 25 45 -13
47 -12 47 13 0 20 -4 24 -22 22 -28 -4 -30 14 -3 21 33 8 25 37 -10 37 -16 0
-30 4 -30 9 0 23 14 41 30 41 23 0 30 18 18 48 -12 34 -3 41 42 35 24 -3 40
-2 40 5 0 5 9 12 20 15 11 3 27 22 36 42 l15 38 -35 33 c-50 47 -72 83 -55 88
72 23 104 13 117 -37 10 -39 33 -45 60 -17 18 19 18 25 7 74 -18 77 -44 113
-79 107 -5 -1 -5 31 -1 72 3 41 3 91 -1 111 l-6 37 -24 -22 c-13 -12 -30 -19
-38 -16 -9 4 -16 2 -16 -3 0 -16 -19 -11 -40 10 -16 16 -20 33 -20 88 0 37 -5
73 -11 79 -6 6 -9 21 -7 34 3 19 11 9 38 -48 18 -40 36 -73 40 -73 4 0 10 -9
13 -20 6 -22 26 -27 31 -7 19 70 22 103 15 154 -6 39 -5 65 3 80 13 26 9 33
-21 36 -11 1 -22 8 -23 17 -2 18 -5 49 -7 73 0 9 -8 17 -16 17 -9 0 -29 10
-45 21 -31 23 -117 58 -163 66 -20 4 -32 16 -46 49 -11 24 -25 44 -31 44 -6 0
-30 9 -52 20 -24 11 -51 17 -61 14 -16 -5 -17 -8 -6 -15 11 -7 12 -12 2 -29
-7 -11 -13 -29 -13 -40 0 -11 -4 -20 -9 -20 -12 0 -21 25 -21 56 0 14 -7 27
-15 30 -8 4 -15 12 -15 20 0 8 -4 14 -10 14 -5 0 -10 8 -10 18 0 10 -13 39
-30 65 -16 26 -30 51 -30 56 0 4 -9 16 -20 26 -11 10 -20 25 -20 33 0 14 -27
41 -42 42 -5 0 -8 -13 -8 -30 0 -23 5 -30 19 -30 17 0 18 -9 19 -99 0 -54 2
-107 6 -117 7 -24 -3 -39 -32 -48 -18 -6 -25 -2 -40 23 -9 17 -21 31 -25 31
-5 0 -6 4 -2 9 6 10 -8 16 -70 26 -22 4 -45 11 -52 17 -8 7 -35 6 -82 -2 -39
-6 -84 -9 -101 -5 -22 5 -40 1 -65 -14 -19 -11 -42 -18 -51 -14 -10 4 -17 -1
-21 -16 -6 -22 -32 -27 -68 -11 -18 8 -18 9 5 10 25 2 25 2 -5 15 -19 8 -37
10 -53 4 -13 -5 -53 -9 -90 -9 -54 0 -93 -9 -197 -46 -71 -25 -144 -50 -161
-55 -18 -5 -37 -16 -44 -24 -7 -8 -28 -15 -46 -15 -19 0 -34 -5 -34 -11 0 -6
-6 -9 -12 -7 -7 3 -43 -6 -81 -19 -38 -13 -77 -23 -86 -23 -10 0 -43 -9 -73
-19 -45 -16 -64 -17 -102 -9 -25 5 -46 13 -46 18 0 4 -9 10 -20 13 -11 3 -20
10 -20 15 0 12 15 17 74 27 26 4 40 12 43 25 4 15 13 19 43 17 25 -1 36 -6 33
-14 -3 -7 -9 -13 -14 -13 -5 0 -9 -4 -9 -10 0 -5 7 -10 15 -10 8 0 15 7 15 15
0 7 8 18 18 24 16 9 16 11 0 28 -11 10 -18 13 -18 5 0 -7 -15 -12 -37 -12
l-36 0 36 28 c20 15 36 34 37 43 0 9 10 24 21 35 12 10 25 29 30 42 5 13 17
22 29 22 20 0 70 44 70 61 0 5 16 27 36 49 28 31 41 39 59 34 20 -5 23 -2 19
13 -3 11 3 30 14 43 16 20 22 22 35 12 13 -11 21 -8 51 19 25 21 36 26 36 16
0 -23 33 -31 47 -11 17 24 16 39 -3 58 -9 9 -17 26 -19 39 -1 12 -6 34 -10 50
-5 20 -4 27 6 27 11 0 11 2 -1 9 -8 6 -18 7 -22 5 -4 -3 -8 2 -8 10 0 19 56
23 62 5 3 -9 14 -9 42 1 21 7 55 10 76 6 39 -6 69 12 55 34 -8 13 1 13 42 -2
24 -9 33 -18 33 -34 0 -40 60 -129 82 -122 7 3 21 -12 31 -31 29 -56 67 -79
67 -42 0 10 7 21 14 24 8 3 22 20 31 37 16 30 15 31 -15 48 -16 9 -30 21 -30
26 0 20 -79 86 -103 86 -22 0 -25 5 -30 51 -4 28 -16 71 -27 95 -20 40 -20 45
-6 60 15 14 17 13 25 -9 8 -20 16 -24 61 -26 29 -1 60 -6 70 -11 10 -6 27 -10
38 -10 11 0 22 -9 25 -20 4 -17 11 -19 31 -14 21 5 32 1 50 -19 13 -14 22 -28
19 -31 -3 -2 3 -20 12 -38 10 -18 21 -39 25 -47 3 -8 12 -17 20 -19 33 -11
-20 125 -54 137 -20 8 -20 8 2 20 12 6 22 20 22 31 0 31 20 34 48 6 15 -14 21
-26 14 -26 -20 0 -14 -24 12 -43 13 -10 27 -29 30 -43 4 -13 13 -24 21 -24 16
0 34 -35 33 -61 -2 -38 4 -55 24 -64 12 -6 26 -19 32 -30 38 -70 47 -77 87
-71 22 3 39 2 39 -3 0 -5 6 -11 13 -14 9 -3 12 14 13 67 1 39 5 84 9 100 6 23
4 32 -11 44 -15 12 -16 14 -2 9 9 -3 18 -1 20 4 5 14 46 -3 81 -33 29 -25 33
-47 16 -79 -14 -27 6 -207 26 -229 8 -9 15 -22 15 -28 0 -7 4 -12 9 -12 5 0
15 25 22 56 14 64 30 84 64 84 16 0 30 -11 45 -35 12 -19 25 -35 29 -35 18 0
40 28 43 55 2 20 11 34 28 42 14 7 32 21 40 31 9 11 25 24 37 30 11 6 23 22
25 35 5 24 2 25 -70 30 -78 6 -92 14 -92 54 0 17 7 24 28 29 53 11 68 22 91
66 22 40 27 43 64 44 35 1 38 0 24 -11 -9 -7 -17 -19 -17 -26 0 -8 -9 -22 -20
-32 -11 -9 -20 -23 -20 -31 0 -20 50 -66 72 -66 10 0 18 -4 18 -10 0 -5 7 -10
15 -10 8 0 15 4 15 8 0 4 13 15 28 24 27 16 29 16 44 -1 14 -16 14 -19 -1 -28
-13 -8 -14 -15 -2 -50 7 -22 11 -47 8 -54 -4 -10 -6 -9 -6 4 -1 9 -6 17 -12
17 -6 0 -9 6 -6 13 3 8 1 20 -4 28 -7 11 -11 11 -21 1 -10 -10 -10 -14 0 -21
18 -11 4 -41 -19 -41 -27 0 -39 -38 -24 -74 16 -37 41 -51 69 -39 11 5 37 9
56 9 31 -1 35 -4 38 -30 2 -16 -1 -33 -7 -39 -8 -8 -11 -5 -12 8 0 15 -4 13
-14 -10 -12 -27 -11 -32 6 -48 23 -21 25 -79 4 -97 -17 -14 -22 -140 -5 -140
6 0 9 3 9 8 -4 21 3 32 17 32 13 0 15 -7 11 -33 -6 -37 2 -87 13 -87 20 0 26
230 9 308 -12 52 -12 68 -3 128 3 23 -1 83 -10 136 -9 52 -16 139 -15 195 1
71 -4 111 -14 135 -34 74 -59 189 -52 239 9 61 -6 102 -52 145 -25 24 -33 40
-33 66 0 38 -27 67 -117 125 -29 18 -53 40 -53 48 0 8 -4 15 -9 15 -4 0 -42
34 -84 76 -68 67 -83 77 -134 89 -128 29 -191 36 -260 30 -39 -4 -77 -3 -85 1
-12 8 -211 14 -328 10 -25 0 -81 1 -125 3 -256 11 -585 3 -745 -20 -66 -9 -82
-8 -139 10 -35 12 -87 21 -115 21 -28 0 -89 7 -136 15 -116 20 -182 18 -265
-10z m-495 -392 c0 -10 -4 -25 -10 -33 -8 -12 -10 -12 -16 3 -7 20 1 47 16 47
5 0 10 -8 10 -17z m-13 -80 c-3 -3 -11 -2 -17 2 -9 6 -9 10 1 16 14 8 27 -7
16 -18z m1393 -23 c0 -5 -6 -10 -12 -10 -9 0 -8 -4 2 -10 11 -7 11 -10 2 -10
-7 0 -22 9 -34 20 l-22 20 32 0 c18 0 32 -4 32 -10z m1 -118 c2 2 -3 -2 -11
-9 -8 -7 -19 -16 -25 -21 -22 -18 -45 -21 -45 -7 0 8 7 15 15 15 9 0 15 9 15
25 0 24 1 25 23 10 13 -8 26 -14 28 -13z m1167 -9 c4 -26 -1 -28 -29 -13 -27
15 -25 42 4 38 14 -2 23 -11 25 -25z m-71 -79 c7 -7 13 -17 13 -23 0 -17 -61
-13 -82 6 -17 15 -17 17 -1 33 19 18 42 13 70 -16z m235 12 c19 -27 0 -66 -32
-66 -20 0 -48 42 -31 48 6 2 11 13 11 24 0 15 4 18 23 12 12 -4 25 -12 29 -18z
m242 -7 c-3 -5 -10 -7 -15 -3 -5 3 -7 10 -3 15 3 5 10 7 15 3 5 -3 7 -10 3
-15z m-360 -2 c17 -13 17 -14 1 -30 -11 -12 -25 -15 -43 -11 -38 10 -40 13
-12 34 30 23 31 24 54 7z m232 -29 c4 -13 12 -26 18 -30 7 -5 4 -8 -7 -8 -10
0 -15 -4 -12 -10 3 -5 -3 -10 -14 -10 -22 0 -41 27 -41 59 0 30 46 29 56 -1z
m71 -34 c-3 -3 -12 -4 -19 -1 -8 3 -5 6 6 6 11 1 17 -2 13 -5z m255 -49 c-6
-14 -19 -25 -28 -25 -16 0 -16 1 -1 18 10 10 17 27 17 37 0 15 3 16 12 7 9 -9
9 -18 0 -37z m-402 -5 c0 -4 -12 -10 -27 -13 -16 -3 -36 -9 -45 -12 -27 -11
-23 20 4 32 23 10 68 6 68 -7z m209 -39 c14 -22 3 -38 -30 -45 -21 -4 -29 -11
-29 -26 0 -11 -4 -20 -10 -20 -5 0 -10 11 -10 24 0 16 -7 27 -21 31 -13 4 -18
12 -15 22 3 8 6 18 6 21 0 14 101 7 109 -7z m-619 -61 c0 -5 -4 -10 -10 -10
-5 0 -10 5 -10 10 0 6 5 10 10 10 6 0 10 -4 10 -10z m364 -5 c13 -10 33 -12
67 -8 52 6 55 3 38 -28 -8 -16 -16 -19 -46 -13 -28 5 -39 3 -49 -10 -18 -26
-5 -56 27 -63 16 -3 29 -11 29 -19 0 -38 -63 -27 -85 16 -12 23 -13 34 -3 55
10 23 9 29 -15 49 -15 13 -27 26 -27 30 0 11 45 5 64 -9z m-1109 -25 c7 -23
-1 -40 -20 -40 -20 0 -24 12 -14 38 10 27 26 28 34 2z m841 -19 c10 -17 21
-28 25 -26 4 3 9 -4 12 -14 3 -12 -5 -27 -23 -43 l-28 -24 -13 40 c-10 31 -11
40 -1 44 14 4 16 32 2 32 -5 0 -10 5 -10 10 0 20 19 9 36 -19z m-116 -78 c0
-43 -5 -41 -13 5 -4 18 -2 32 3 32 6 0 10 -16 10 -37z m-1503 -5 c-3 -8 -6 -5
-6 6 -1 11 2 17 5 13 3 -3 4 -12 1 -19z m-401 -112 c-24 -38 -32 -32 -27 20
l3 46 21 -20 c19 -20 19 -22 3 -46z m2000 17 c-13 -14 -25 9 -13 28 12 20 12
20 15 -1 2 -12 1 -24 -2 -27z m423 -62 c15 -10 7 -31 -12 -31 -21 0 -40 17
-33 29 9 13 26 14 45 2z m-2389 -181 c0 -5 -7 -10 -15 -10 -8 0 -15 5 -15 10
0 6 7 10 15 10 8 0 15 -4 15 -10z m-32 -163 c30 -32 23 -86 -12 -87 -4 0 -6 7
-2 15 6 18 -12 75 -25 75 -5 0 -9 5 -9 10 0 18 26 11 48 -13z m-78 -13 c0 -8
-4 -12 -10 -9 -5 3 -10 10 -10 16 0 5 5 9 10 9 6 0 10 -7 10 -16z m2900 -58
c0 -3 -4 -8 -10 -11 -5 -3 -10 -1 -10 4 0 6 5 11 10 11 6 0 10 -2 10 -4z
m-1768 -198 c60 -64 118 -143 118 -159 0 -8 6 -21 13 -29 7 -8 2 -7 -15 3 -15
9 -35 16 -45 15 -25 -2 -83 13 -83 22 0 9 -55 25 -157 46 -80 16 -107 35 -65
46 10 3 18 15 19 27 3 36 22 51 67 52 22 0 50 4 61 9 35 15 46 11 87 -32z
m-1251 -99 c16 -16 18 -23 9 -34 -10 -12 -16 -12 -40 0 -36 19 -46 35 -29 46
22 14 37 11 60 -12z m2879 1 c0 -11 -7 -20 -15 -20 -8 0 -15 -5 -15 -12 0 -6
-3 -8 -6 -5 -7 6 22 57 31 57 3 0 5 -9 5 -20z m49 -66 c-5 -6 -6 -20 -2 -29 4
-13 3 -16 -5 -11 -6 4 -11 19 -10 34 2 36 9 47 19 31 4 -7 4 -19 -2 -25z
m-784 -57 c10 -8 20 -30 22 -52 l4 -37 -33 19 c-33 19 -44 42 -34 69 7 18 17
18 41 1z m-2019 -41 c19 -20 18 -44 -4 -57 -12 -8 -17 -20 -14 -38 4 -32 -18
-64 -36 -53 -21 14 -32 69 -16 83 17 14 19 66 2 72 -7 3 2 6 20 6 18 1 40 -5
48 -13z m2844 -17 c0 -5 -4 -9 -10 -9 -5 0 -10 7 -10 16 0 8 5 12 10 9 6 -3
10 -10 10 -16z m-452 -40 c2 -19 8 -38 13 -43 5 -6 9 -20 9 -31 0 -12 15 -37
34 -56 18 -19 39 -51 46 -72 6 -21 20 -43 29 -49 11 -7 16 -19 13 -34 -2 -14
8 -44 27 -78 33 -58 81 -186 81 -218 0 -16 -3 -17 -20 -8 -12 6 -26 21 -31 33
-6 13 -23 29 -40 36 -22 10 -29 19 -29 42 0 22 -9 34 -39 55 -47 31 -61 25
-61 -22 0 -35 -1 -35 -32 -29 -18 4 -40 15 -49 25 -11 12 -24 17 -38 13 -27
-7 -71 15 -71 35 0 7 -10 22 -21 31 -15 12 -22 30 -24 57 -1 32 -5 40 -24 42
-31 5 -57 72 -27 72 7 0 19 15 26 33 8 17 20 39 27 48 12 15 11 17 -12 23 -14
4 -25 14 -25 23 0 9 -3 13 -7 9 -5 -4 -8 -11 -8 -14 1 -11 -28 -42 -38 -42 -5
0 -7 6 -4 14 3 8 1 16 -5 18 -6 2 6 21 27 41 35 34 63 44 58 20 -1 -5 9 -10
22 -11 13 -1 28 -2 32 -3 21 -3 33 2 33 15 0 15 37 32 47 22 3 -3 0 -12 -7
-20 -10 -13 -9 -18 3 -31 24 -23 37 -18 37 15 0 37 20 82 34 77 6 -2 12 -19
14 -38z m193 -224 c-1 -15 -24 -12 -29 3 -3 9 2 13 12 10 10 -1 17 -7 17 -13z
m268 -66 c-7 -14 -14 -18 -21 -11 -13 13 -2 32 18 32 12 0 13 -4 3 -21z
m-2771 -308 c11 -7 11 -9 -1 -14 -16 -6 -27 0 -27 15 0 10 11 10 28 -1z m37
-41 c3 -5 -1 -10 -10 -10 -9 0 -13 5 -10 10 3 6 8 10 10 10 2 0 7 -4 10 -10z
m1530 -40 c3 -5 14 -10 23 -10 10 0 25 -9 34 -19 15 -18 14 -20 -26 -31 -41
-11 -44 -10 -75 19 -18 17 -30 35 -26 41 8 13 62 13 70 0z m-115 -49 c0 -19
32 -41 59 -41 34 0 44 -9 30 -27 -16 -18 -36 -16 -70 8 -16 11 -33 18 -38 14
-15 -8 -20 8 -10 33 8 22 29 31 29 13z m1092 -80 c-1 -46 -24 -100 -44 -101
-3 0 -6 30 -7 67 0 49 4 72 16 85 23 26 35 9 35 -51z m-1555 -621 c2 -24 -15
-36 -30 -21 -8 8 -6 15 9 26 10 8 19 15 19 15 1 0 1 -9 2 -20z m-1103 -212 c5
-9 7 -20 3 -24 -8 -8 -57 23 -57 37 0 16 42 6 54 -13z m3266 -29 c0 -5 -9 -9
-20 -9 -22 0 -27 16 -7 23 15 5 27 -1 27 -14z m-2552 -954 c62 -11 66 -13 52
-30 -7 -9 -29 -15 -55 -15 -34 0 -44 4 -55 24 -7 14 -10 33 -6 43 7 17 8 17
17 1 5 -10 26 -20 47 -23z m-728 -54 c0 -5 -9 -11 -20 -14 -13 -3 -20 0 -20 9
0 8 9 14 20 14 11 0 20 -4 20 -9z m447 -213 c29 -13 53 -25 53 -28 0 -11 -41
-30 -79 -36 -36 -6 -41 -4 -52 19 -8 18 -8 30 0 46 14 26 15 26 78 -1z m-370
6 c29 -8 20 -24 -13 -24 -15 0 -24 6 -24 15 0 17 4 18 37 9z m83 -19 c0 -8 -4
-15 -9 -15 -13 0 -22 16 -14 24 11 11 23 6 23 -9z m625 -35 c3 -5 -1 -10 -9
-10 -9 0 -16 5 -16 10 0 6 4 10 9 10 6 0 13 -4 16 -10z m80 -9 c10 -17 -15
-23 -31 -7 -14 15 -14 16 5 16 11 0 22 -4 26 -9z m1422 -180 c28 -54 28 -57 2
-64 -34 -9 -45 1 -41 37 2 19 -1 37 -7 40 -6 4 -11 14 -11 22 0 30 34 9 57
-35z m-288 -31 c22 0 46 -7 55 -15 19 -20 10 -48 -14 -40 -9 3 -36 7 -59 10
-60 5 -111 24 -111 40 0 16 47 24 72 13 9 -4 35 -8 57 -8z m151 -60 c0 -5 -7
-10 -15 -10 -8 0 -15 5 -15 10 0 6 7 10 15 10 8 0 15 -4 15 -10z m187 -5 c8
-22 -6 -33 -17 -15 -13 20 -12 30 0 30 6 0 13 -7 17 -15z m23 -59 c0 -2 -7 -6
-15 -10 -8 -3 -15 -1 -15 4 0 6 7 10 15 10 8 0 15 -2 15 -4z m-2480 -65 c3 -5
11 -10 19 -13 22 -7 22 -38 0 -38 -10 0 -19 -4 -19 -10 0 -14 -20 -13 -53 3
-19 8 -27 20 -27 39 0 14 6 29 13 32 15 6 60 -3 67 -13z m210 -126 c19 -20 21
-28 11 -38 -10 -9 -15 -8 -26 8 -8 11 -19 25 -25 32 -28 33 9 31 40 -2z m1904
-27 c2 -7 6 -21 11 -31 4 -9 4 -30 1 -45 -4 -15 -11 -47 -16 -72 -4 -25 -12
-59 -18 -76 -5 -17 -7 -36 -3 -42 9 -14 48 -4 55 14 3 8 19 14 38 14 l33 -1
-35 -31 c-19 -17 -46 -52 -60 -77 -14 -25 -35 -50 -47 -56 -13 -5 -23 -14 -23
-19 0 -4 -13 -24 -30 -43 -23 -25 -30 -44 -31 -76 -1 -55 -12 -86 -24 -67 -5
8 -10 30 -12 49 -2 18 -8 42 -13 51 -9 17 -12 17 -49 -2 -32 -16 -42 -27 -47
-54 -3 -19 -10 -36 -14 -39 -5 -3 -11 -23 -15 -46 -8 -46 -28 -48 -33 -3 -2
16 -8 35 -14 41 -6 7 -7 24 -4 38 7 29 90 115 110 115 8 0 18 19 25 44 9 37
15 44 41 50 43 8 71 70 59 127 -7 29 -5 47 6 68 8 16 17 48 21 70 6 35 10 42
28 39 33 -4 46 10 46 49 0 34 8 41 14 11z m-2204 -35 l32 -26 -32 -14 c-41
-17 -91 -17 -114 0 -18 13 -18 15 -1 40 24 37 72 37 115 0z m2788 -12 c27 -23
28 -31 3 -31 -10 0 -26 11 -35 25 -20 31 -2 34 32 6z m-817 -95 c5 -6 9 -19 9
-30 0 -11 7 -28 17 -38 13 -14 14 -23 5 -41 -6 -12 -14 -37 -17 -54 -4 -18
-17 -41 -31 -52 -13 -10 -24 -27 -24 -37 0 -14 -3 -15 -12 -6 -19 19 -32 15
-82 -29 -51 -45 -57 -59 -25 -59 18 0 19 -2 5 -15 -21 -22 -31 -82 -17 -111 9
-20 8 -26 -4 -30 -20 -8 -35 4 -28 21 3 8 0 15 -6 15 -6 0 -16 11 -21 25 -11
28 -28 33 -36 10 -5 -11 -11 -8 -28 12 -21 25 -22 28 -8 57 16 33 35 57 92
115 19 20 39 45 45 56 6 10 28 24 50 30 78 20 80 23 83 127 3 102 14 147 20
83 2 -22 8 -44 13 -49z m-391 -132 c0 -8 -4 -12 -10 -9 -5 3 -10 10 -10 16 0
5 5 9 10 9 6 0 10 -7 10 -16z m858 -67 c5 -27 -27 -48 -50 -33 -22 13 -22 20
-2 41 20 20 48 16 52 -8z m-1440 -259 c-6 -18 -28 -21 -28 -4 0 9 7 16 16 16
9 0 14 -5 12 -12z m755 -203 c-7 -21 -13 -19 -13 6 0 11 4 18 10 14 5 -3 7
-12 3 -20z m-600 -20 c8 -18 -11 -31 -25 -17 -11 11 -3 32 12 32 4 0 10 -7 13
-15z m497 -50 c0 -18 -2 -18 -20 5 -11 14 -20 34 -20 45 0 18 2 18 20 -5 11
-14 20 -34 20 -45z m-115 5 c0 -15 -31 -37 -40 -28 -4 3 -1 16 5 28 12 22 35
23 35 0z"/>
<path d="M1692 6091 c-11 -7 -10 -10 3 -15 20 -7 38 1 30 15 -7 11 -16 11 -33
0z"/>
<path d="M2025 6060 c-6 -19 -12 -21 -43 -16 -131 20 -148 19 -204 -8 -45 -22
-59 -25 -82 -16 -39 14 -72 12 -90 -6 -19 -18 -36 -10 -36 17 0 17 -3 18 -22
7 -13 -7 -26 -17 -29 -22 -7 -9 -98 -11 -107 -2 -2 3 -22 -4 -44 -15 -55 -28
-40 -43 36 -34 62 6 116 -7 116 -27 0 -5 13 0 29 11 32 23 56 27 66 11 3 -5
22 -10 40 -10 26 0 39 6 51 26 10 15 23 23 32 19 8 -3 21 0 28 6 11 9 28 9 69
1 30 -6 76 -9 103 -5 37 4 55 1 76 -12 25 -17 27 -17 46 0 26 24 25 47 -4 74
l-24 23 -7 -22z"/>
<path d="M57 6034 c-9 -9 4 -37 27 -58 12 -10 50 -32 86 -49 36 -17 72 -36 80
-43 8 -7 33 -19 55 -27 22 -8 48 -18 57 -21 13 -6 23 2 42 33 42 66 30 121
-27 121 -18 0 -48 5 -67 10 -89 27 -240 47 -253 34z"/>
<path d="M1250 5970 c-10 -18 -8 -20 19 -20 16 0 33 5 36 11 8 12 6 15 -22 23
-16 5 -25 2 -33 -14z"/>
<path d="M910 5940 c0 -5 5 -10 10 -10 6 0 10 5 10 10 0 6 -4 10 -10 10 -5 0
-10 -4 -10 -10z"/>
<path d="M1840 5935 c0 -8 7 -15 15 -15 8 0 15 7 15 15 0 8 -7 15 -15 15 -8 0
-15 -7 -15 -15z"/>
<path d="M1017 5909 c-35 -20 -6 -44 39 -33 26 7 28 29 3 29 -8 0 -16 3 -19 7
-3 3 -13 2 -23 -3z"/>
<path d="M860 5885 c0 -16 30 -55 41 -55 9 0 -1 41 -14 58 -13 16 -27 15 -27
-3z"/>
<path d="M1101 5882 c-9 -17 -7 -18 15 -14 14 2 23 9 21 15 -6 19 -25 19 -36
-1z"/>
<path d="M1465 5882 c-12 -8 -13 -27 -3 -37 8 -8 58 23 58 36 0 11 -41 12 -55
1z"/>
<path d="M1710 5880 c0 -5 5 -10 11 -10 5 0 7 5 4 10 -3 6 -8 10 -11 10 -2 0
-4 -4 -4 -10z"/>
<path d="M1290 5870 c-8 -5 -23 -7 -32 -4 -10 3 -27 2 -39 -1 -17 -6 -20 -14
-17 -48 2 -32 8 -43 22 -45 21 -4 36 13 36 44 0 32 17 43 50 31 22 -8 32 -8
44 2 9 7 13 17 10 22 -7 12 -55 11 -74 -1z"/>
<path d="M670 5855 c-18 -21 -25 -122 -10 -140 11 -14 14 -14 25 2 7 10 15 36
19 58 4 22 9 48 12 57 7 24 -30 43 -46 23z"/>
<path d="M957 5847 c-4 -10 -7 -33 -6 -50 l1 -32 9 33 c12 40 8 79 -4 49z"/>
<path d="M1620 5815 c-7 -9 -10 -18 -7 -21 10 -11 37 5 37 21 0 19 -14 19 -30
0z"/>
<path d="M750 5805 c-9 -11 -8 -23 5 -59 16 -41 36 -58 61 -49 11 4 4 88 -9
111 -11 16 -42 15 -57 -3z"/>
<path d="M1350 5779 c0 -5 5 -7 10 -4 6 3 10 8 10 11 0 2 -4 4 -10 4 -5 0 -10
-5 -10 -11z"/>
<path d="M1538 5779 c-26 -15 -22 -39 6 -39 26 0 51 24 41 40 -8 13 -25 12
-47 -1z"/>
<path d="M548 5725 c-9 -21 -9 -31 0 -46 14 -22 6 -42 -31 -77 -21 -20 -27
-21 -51 -11 -14 7 -28 10 -31 8 -12 -13 -6 -71 15 -132 21 -64 22 -99 6 -152
-9 -29 26 -70 50 -61 22 9 25 8 22 -1 -2 -5 -6 -7 -10 -5 -15 4 -8 -105 7
-118 11 -9 15 -34 14 -100 0 -48 3 -96 9 -106 5 -11 10 -66 10 -123 1 -75 5
-109 17 -127 8 -13 15 -35 15 -50 0 -30 39 -114 52 -114 5 0 16 -16 24 -35 9
-22 21 -35 32 -35 20 0 48 -42 39 -57 -4 -6 8 -20 26 -33 35 -27 100 -29 124
-4 8 8 18 14 23 14 4 0 8 16 7 35 -1 36 -24 56 -39 33 -5 -7 -6 6 -2 32 4 27
16 55 30 71 28 29 29 35 12 72 -10 22 -18 26 -35 22 -24 -6 -33 17 -13 30 19
12 10 57 -17 86 -27 28 -73 40 -73 19 0 -18 -19 -10 -25 10 -9 29 10 48 46 45
24 -2 32 2 39 21 13 33 -7 79 -27 62 -12 -10 -14 -2 -12 45 1 31 -2 62 -8 69
-16 20 -36 115 -30 144 8 43 -19 121 -57 166 -25 28 -36 51 -36 73 0 17 -7 40
-15 51 -11 17 -12 28 -3 50 9 25 7 37 -11 73 -16 31 -20 46 -12 54 14 14 14
57 1 57 -5 0 -10 6 -11 13 0 6 -13 22 -29 35 l-30 23 -12 -26z m152 -615 c0
-5 -4 -10 -10 -10 -5 0 -10 5 -10 10 0 6 5 10 10 10 6 0 10 -4 10 -10z m168
-569 c11 -7 11 -15 -2 -45 -25 -60 -83 -42 -70 23 5 25 11 31 33 31 14 0 32
-4 39 -9z"/>
<path d="M1300 5703 c-11 -8 -32 -13 -47 -11 -23 3 -27 -1 -30 -29 -3 -27 -1
-33 14 -33 10 0 25 4 33 10 9 5 19 5 26 -1 12 -10 64 7 64 21 0 4 13 13 29 20
18 7 28 17 24 26 -7 18 -86 16 -113 -3z"/>
<path d="M974 5675 c-8 -21 6 -41 17 -24 12 19 11 39 -1 39 -6 0 -13 -7 -16
-15z"/>
<path d="M1117 5582 c-19 -20 -23 -52 -7 -52 6 0 10 5 10 11 0 6 7 9 15 5 11
-4 15 2 15 24 0 34 -10 38 -33 12z"/>
<path d="M720 5539 c0 -40 1 -41 27 -34 37 9 38 10 23 45 -8 18 -20 30 -31 30
-16 0 -19 -8 -19 -41z"/>
<path d="M863 5559 c-8 -10 -9 -28 -3 -59 4 -25 6 -49 3 -53 -6 -10 -55 -31
-66 -28 -5 1 -6 -3 -2 -9 3 -6 11 -8 16 -5 5 4 9 1 9 -4 0 -6 -7 -11 -15 -11
-8 0 -15 -5 -15 -11 0 -5 5 -7 11 -3 8 4 9 -1 3 -17 -12 -33 -8 -100 6 -109 9
-6 9 -9 1 -15 -9 -5 -9 -10 -1 -20 6 -8 12 -37 13 -66 3 -57 20 -75 44 -43 7
10 13 12 13 6 0 -13 30 -17 30 -4 1 4 10 18 21 31 15 18 23 21 28 13 4 -7 14
-10 22 -7 19 8 59 72 59 96 0 23 -36 34 -84 25 -29 -6 -35 -3 -41 14 -3 11
-13 20 -21 20 -8 0 -14 6 -14 14 0 8 -12 24 -27 36 l-28 21 25 19 c25 19 25
19 30 -3 3 -12 12 -22 20 -22 23 0 25 78 4 110 -10 15 -20 43 -23 62 -5 29 -8
33 -18 22z"/>
<path d="M1105 5483 c-9 -36 -46 -49 -84 -30 -17 9 -29 12 -26 7 3 -4 -1 -10
-7 -13 -10 -3 -8 -10 5 -25 27 -30 55 -34 68 -10 7 13 17 18 31 15 11 -3 31
-1 45 4 20 7 24 15 21 41 -2 26 -8 33 -25 34 -15 1 -23 -6 -28 -23z"/>
<path d="M3076 5475 c-11 -29 -7 -55 9 -55 16 0 20 36 6 58 -7 11 -10 10 -15
-3z"/>
<path d="M1115 5380 c3 -5 8 -10 11 -10 2 0 4 5 4 10 0 6 -5 10 -11 10 -5 0
-7 -4 -4 -10z"/>
<path d="M993 5343 c-24 -9 -13 -23 17 -23 32 0 40 14 14 24 -9 3 -16 6 -17 5
-1 0 -8 -3 -14 -6z"/>
<path d="M3840 5290 c0 -13 5 -20 13 -17 6 2 12 10 12 17 0 7 -6 15 -12 18 -8
2 -13 -5 -13 -18z"/>
<path d="M3763 5232 c-18 -24 -19 -31 -7 -46 9 -13 20 -17 36 -12 43 11 52 24
49 69 -2 29 -54 22 -78 -11z"/>
<path d="M1055 5200 c3 -5 8 -10 11 -10 2 0 4 5 4 10 0 6 -5 10 -11 10 -5 0
-7 -4 -4 -10z"/>
<path d="M3860 5190 c0 -5 7 -10 15 -10 8 0 15 5 15 10 0 6 -7 10 -15 10 -8 0
-15 -4 -15 -10z"/>
<path d="M3967 5159 c-4 -15 -1 -19 11 -17 21 4 29 38 9 38 -8 0 -17 -9 -20
-21z"/>
<path d="M3880 5159 c0 -6 9 -13 20 -16 10 -3 22 -14 25 -24 4 -10 11 -19 16
-19 14 0 11 9 -12 41 -20 29 -49 39 -49 18z"/>
<path d="M4013 5114 c-6 -3 -19 -30 -29 -60 -16 -51 -16 -56 -1 -71 15 -15 18
-15 36 2 11 9 18 22 14 28 -3 6 -9 28 -13 49 -6 28 -4 38 6 38 7 0 16 5 19 10
6 10 -11 12 -32 4z"/>
<path d="M991 5063 c-6 -12 -11 -33 -11 -47 0 -32 -18 -43 -34 -21 -10 14 -16
15 -39 4 -20 -9 -27 -19 -27 -41 0 -15 5 -28 11 -28 11 0 8 -43 -6 -85 -5 -17
0 -23 29 -33 43 -16 56 -10 56 27 0 59 12 92 37 102 16 6 23 15 20 24 -3 7 -2
28 3 44 7 24 4 36 -9 53 l-18 22 -12 -21z"/>
<path d="M850 5000 c0 -5 5 -10 11 -10 5 0 7 5 4 10 -3 6 -8 10 -11 10 -2 0
-4 -4 -4 -10z"/>
<path d="M4132 4750 c0 -14 2 -19 5 -12 2 6 2 18 0 25 -3 6 -5 1 -5 -13z"/>
<path d="M4127 4656 c-4 -10 -5 -21 -2 -24 9 -9 17 6 13 25 -3 17 -4 17 -11
-1z"/>
<path d="M4110 4491 c0 -12 5 -21 10 -21 6 0 10 6 10 14 0 8 -4 18 -10 21 -5
3 -10 -3 -10 -14z"/>
<path d="M620 4402 c0 -10 10 -38 21 -63 21 -41 22 -42 30 -21 7 17 3 34 -14
63 -24 42 -37 50 -37 21z"/>
<path d="M720 4260 c0 -7 -6 -10 -14 -7 -8 3 -20 0 -26 -8 -12 -15 -5 -55 10
-55 5 0 18 -19 29 -42 11 -24 26 -51 33 -60 7 -9 10 -20 7 -23 -11 -10 -59 14
-59 31 0 8 -6 14 -12 11 -30 -10 9 -97 43 -97 11 0 28 -11 40 -24 14 -16 27
-22 45 -18 16 3 24 0 24 -9 -1 -19 -28 -54 -36 -46 -4 4 -13 2 -20 -4 -17 -14
-34 -3 -34 22 0 31 -40 22 -52 -12 -5 -11 -14 -15 -32 -12 -22 5 -105 -6 -365
-48 -41 -6 -67 -7 -74 0 -13 13 -24 77 -33 190 -8 112 -19 129 -82 123 -51 -5
-57 -20 -43 -110 6 -37 12 -102 13 -146 3 -85 1 -89 -54 -101 -27 -5 -28 -8
-28 -61 l0 -57 35 6 c48 8 61 -15 70 -123 7 -86 22 -128 56 -166 10 -11 23
-41 28 -67 11 -59 26 -77 62 -77 36 0 88 53 89 90 0 14 -9 60 -20 104 -23 90
-26 162 -7 169 10 4 10 7 0 18 -16 17 -17 71 -1 87 7 7 35 12 63 12 31 0 60 6
75 17 28 20 91 18 131 -3 25 -12 30 -11 68 16 27 20 41 38 41 53 0 12 9 30 20
40 23 19 34 22 25 6 -4 -5 -4 -22 0 -36 5 -21 10 -24 36 -21 l30 5 -2 -49 c-2
-26 0 -50 2 -53 3 -2 26 16 52 40 25 25 54 45 64 45 10 0 31 10 47 23 27 22
28 25 20 76 -8 47 -12 55 -34 58 -38 6 -57 28 -40 47 7 9 21 16 31 16 12 0 19
7 19 20 0 16 -7 20 -36 20 -34 0 -74 28 -74 51 0 4 -13 12 -29 17 -16 6 -32
20 -36 31 -3 12 -10 21 -15 21 -5 0 -14 16 -20 35 -12 35 -30 56 -30 35z m86
-417 c-10 -10 -19 5 -10 18 6 11 8 11 12 0 2 -7 1 -15 -2 -18z"/>
<path d="M53 4250 c-56 -23 0 -57 70 -43 38 8 90 37 80 46 -9 10 -124 7 -150
-3z"/>
<path d="M4110 3850 c0 -20 5 -30 15 -30 16 0 19 17 9 44 -10 26 -24 18 -24
-14z"/>
<path d="M4534 3865 c-18 -14 -18 -14 3 -15 23 0 39 15 25 24 -5 3 -18 -1 -28
-9z"/>
<path d="M1168 3783 c7 -3 16 -2 19 1 4 3 -2 6 -13 5 -11 0 -14 -3 -6 -6z"/>
<path d="M1166 3711 c-10 -15 5 -41 23 -41 26 0 31 10 18 31 -13 20 -32 25
-41 10z"/>
<path d="M1194 3558 c-3 -4 4 -8 15 -8 12 0 21 4 21 8 0 5 -7 9 -15 9 -9 0
-18 -4 -21 -9z"/>
<path d="M3941 3526 c-26 -28 -27 -42 0 -56 27 -15 49 3 49 40 0 37 -23 44
-49 16z"/>
<path d="M5288 3533 c-29 -3 -38 -9 -38 -22 0 -13 10 -20 36 -24 40 -7 76 10
72 33 -4 16 -16 19 -70 13z"/>
<path d="M1292 3445 c-36 -16 -43 -35 -12 -35 11 0 23 0 28 -1 11 -1 34 39 25
44 -5 3 -23 -1 -41 -8z"/>
<path d="M786 3405 c4 -8 8 -15 10 -15 2 0 4 7 4 15 0 8 -4 15 -10 15 -5 0 -7
-7 -4 -15z"/>
<path d="M1417 3383 c-13 -12 -7 -33 8 -33 8 0 15 9 15 20 0 20 -11 26 -23 13z"/>
<path d="M4288 3373 c7 -3 16 -2 19 1 4 3 -2 6 -13 5 -11 0 -14 -3 -6 -6z"/>
<path d="M4328 3373 c7 -3 16 -2 19 1 4 3 -2 6 -13 5 -11 0 -14 -3 -6 -6z"/>
<path d="M4434 3356 c-8 -22 3 -33 18 -18 9 9 9 15 0 24 -9 9 -13 7 -18 -6z"/>
<path d="M4187 3264 c-11 -11 3 -24 24 -24 12 0 19 5 17 13 -5 14 -31 21 -41
11z"/>
<path d="M5951 3185 c-18 -8 -41 -15 -51 -15 -26 0 -102 -35 -126 -58 -28 -26
-62 -44 -73 -37 -11 6 -121 -32 -136 -47 -7 -7 41 -8 145 -4 265 11 682 38
778 51 40 6 42 8 42 42 0 30 -3 34 -17 27 -19 -8 -48 -8 -132 2 -35 4 -61 2
-77 -7 -21 -11 -27 -10 -47 9 -12 12 -42 28 -66 37 -56 19 -194 19 -240 0z"/>
<path d="M1226 3161 c-20 -21 -20 -35 -3 -50 11 -8 18 -7 29 7 32 36 6 78 -26
43z"/>
<path d="M5285 3160 c-8 -13 15 -150 26 -150 9 0 16 82 11 127 -4 32 -24 44
-37 23z"/>
<path d="M4060 3135 c0 -10 7 -15 18 -13 21 4 19 22 -2 26 -10 2 -16 -3 -16
-13z"/>
<path d="M3873 3093 c-7 -2 -13 -9 -13 -14 0 -15 53 -6 58 9 4 12 -21 15 -45
5z"/>
<path d="M4000 3090 c0 -5 5 -10 10 -10 6 0 10 5 10 10 0 6 -4 10 -10 10 -5 0
-10 -4 -10 -10z"/>
<path d="M1820 3060 c-31 -7 -42 -50 -12 -50 23 0 54 32 44 46 -4 6 -18 8 -32
4z"/>
<path d="M2097 3032 c-9 -10 -17 -24 -17 -32 0 -19 -52 -65 -70 -61 -8 1 -21
12 -28 23 -16 23 -65 21 -69 -2 -5 -30 13 -40 72 -41 49 -2 62 -6 78 -25 19
-25 60 -32 86 -15 12 8 12 12 2 25 -8 9 -19 16 -27 16 -24 0 -26 21 -4 45 14
15 20 33 18 51 -4 34 -19 40 -41 16z"/>
<path d="M3967 3004 c-15 -15 -6 -24 23 -24 17 0 30 5 30 10 0 6 -4 10 -9 10
-5 0 -16 2 -23 5 -8 3 -17 2 -21 -1z"/>
<path d="M1787 2903 c-12 -11 -8 -53 6 -58 6 -2 28 -1 47 4 l35 8 -27 11 c-30
12 -36 27 -15 35 6 3 0 6 -14 6 -14 1 -29 -2 -32 -6z"/>
<path d="M1315 2860 c-4 -6 3 -10 14 -10 25 0 27 6 6 13 -8 4 -17 2 -20 -3z"/>
<path d="M1973 2853 c9 -2 23 -2 30 0 6 3 -1 5 -18 5 -16 0 -22 -2 -12 -5z"/>
<path d="M1414 2825 c-6 -16 2 -35 16 -35 14 0 41 31 35 41 -9 14 -45 11 -51
-6z"/>
<path d="M1547 2794 c-8 -8 1 -24 14 -24 5 0 9 7 9 15 0 15 -12 20 -23 9z"/>
<path d="M1682 2660 c-14 -23 -8 -40 14 -40 8 0 14 9 14 20 0 11 0 23 1 27 1
17 -17 12 -29 -7z"/>
<path d="M1505 2660 c-8 -13 5 -13 25 0 13 8 13 10 -2 10 -9 0 -20 -4 -23 -10z"/>
<path d="M1563 2633 c9 -9 19 -14 23 -11 10 10 -6 28 -24 28 -15 0 -15 -1 1
-17z"/>
<path d="M1523 2526 c-26 -12 -29 -28 -9 -46 12 -9 23 -8 53 5 58 25 66 30 71
43 5 15 -84 14 -115 -2z"/>
<path d="M611 1162 c-14 -5 -15 -92 0 -92 6 0 9 6 6 13 -5 13 21 67 38 79 10
7 -22 7 -44 0z"/>
<path d="M80 1075 c0 -8 5 -47 11 -87 6 -40 13 -88 15 -106 3 -18 9 -30 13
-28 19 12 51 -35 50 -72 -2 -79 12 -207 24 -214 17 -11 121 -10 151 2 24 9 26
13 23 65 -3 36 1 62 10 75 9 12 10 20 4 20 -14 0 -14 43 1 75 7 16 19 25 34
25 34 0 59 42 43 71 -7 15 -9 44 -5 84 4 45 3 65 -6 72 -21 16 -165 33 -270
33 -80 0 -98 -3 -98 -15z"/>
<path d="M5410 910 c0 -5 8 -10 18 -10 13 0 14 -2 3 -9 -11 -7 -11 -9 0 -13 8
-3 11 -9 6 -14 -4 -4 -29 0 -55 9 -26 9 -70 17 -99 17 -28 0 -55 5 -58 10 -3
6 -13 10 -22 10 -13 0 -14 -10 -10 -57 13 -120 26 -170 62 -238 74 -137 93
-171 142 -260 111 -200 134 -246 129 -254 -7 -11 -98 -24 -168 -23 -55 1 -58
0 -58 -23 0 -13 -4 -27 -10 -30 -5 -3 -10 -10 -10 -16 0 -5 241 -9 625 -9
l625 0 0 25 c0 27 -9 32 -28 13 -6 -6 -15 -8 -19 -4 -5 4 0 13 10 20 11 8 17
26 17 49 0 20 5 39 10 42 6 4 10 126 10 335 l0 328 -97 6 c-54 3 -161 8 -237
12 -82 4 -153 12 -172 20 -21 9 -71 14 -135 14 -92 0 -100 -2 -88 -16 12 -14
3 -16 -98 -12 -99 3 -114 5 -135 26 -14 12 -30 22 -36 22 -7 0 -12 6 -12 14 0
7 -10 16 -22 20 -36 9 -88 7 -88 -4z m507 -106 c-3 -3 -12 -4 -19 -1 -8 3 -5
6 6 6 11 1 17 -2 13 -5z m481 -548 c15 -8 38 -26 51 -40 23 -24 24 -28 9 -43
-15 -14 -21 -14 -50 -3 -46 19 -78 49 -78 77 0 27 26 31 68 9z m39 -161 c-5
-13 -11 -14 -27 -5 -22 12 -27 36 -7 43 18 7 41 -19 34 -38z"/>
<path d="M3760 752 c0 -10 9 -25 19 -34 10 -9 23 -22 27 -30 9 -13 42 -38 93
-69 14 -8 30 -25 36 -37 15 -34 23 -26 15 16 -9 48 -24 76 -56 101 -14 11 -23
25 -19 32 5 8 -2 9 -24 4 -28 -6 -33 -4 -38 14 -7 27 -53 30 -53 3z"/>
<path d="M409 739 c-7 -15 -8 -24 -1 -28 6 -4 10 -35 9 -71 -2 -52 1 -65 14
-68 25 -5 35 62 15 93 -13 20 -13 25 -1 35 20 16 19 46 -1 54 -22 8 -22 8 -35
-15z"/>
<path d="M3883 488 c-10 -23 -9 -27 9 -32 12 -3 25 -3 30 0 13 8 9 24 -6 24
-8 0 -16 8 -18 17 -2 13 -6 11 -15 -9z"/>
<path d="M3660 415 c0 -8 5 -15 10 -15 6 0 10 7 10 15 0 8 -4 15 -10 15 -5 0
-10 -7 -10 -15z"/>
<path d="M0 195 l0 -195 256 0 c200 0 255 3 252 13 -3 6 -17 18 -32 25 -37 18
-42 37 -17 63 24 26 26 40 9 57 -10 10 -8 19 6 43 17 28 17 32 1 55 -9 14 -14
32 -11 39 17 45 -128 84 -341 91 l-123 4 0 -195z"/>
<path d="M3922 382 c-9 -6 -6 -14 12 -31 21 -19 24 -20 30 -6 15 40 -6 59 -42
37z"/>
<path d="M3539 304 c-12 -14 -11 -16 5 -13 11 2 21 10 24 17 5 17 -13 15 -29
-4z"/>
<path d="M4220 305 c0 -8 5 -15 10 -15 6 0 10 7 10 15 0 8 -4 15 -10 15 -5 0
-10 -7 -10 -15z"/>
<path d="M3280 227 c0 -14 -3 -34 -7 -44 -6 -17 -6 -17 10 -1 21 20 26 59 10
65 -8 3 -13 -5 -13 -20z"/>
<path d="M3818 209 c-24 -13 -23 -25 2 -32 23 -6 30 1 21 25 -4 13 -10 14 -23
7z"/>
<path d="M4082 148 c3 -7 13 -15 22 -16 12 -3 17 1 14 10 -3 7 -13 15 -22 16
-12 3 -17 -1 -14 -10z"/>
<path d="M4388 138 c-21 -21 -23 -35 -6 -40 16 -6 38 16 38 36 0 23 -13 25
-32 4z"/>
<path d="M4480 135 c0 -8 -6 -15 -14 -15 -7 0 -19 -7 -26 -15 -11 -13 -5 -15
44 -15 l57 0 -15 -28 c-11 -22 -12 -31 -1 -45 11 -15 37 -17 264 -17 229 0
283 6 234 24 -38 14 -83 52 -83 68 0 24 -36 31 -125 25 -81 -6 -95 -11 -95
-33 0 -18 -28 -18 -60 1 -14 8 -34 14 -46 15 -11 0 -43 11 -70 25 -57 29 -64
30 -64 10z"/>
<path d="M3002 78 c-14 -14 -16 -38 -4 -38 10 0 42 33 42 43 0 11 -25 8 -38
-5z"/>
<path d="M4218 82 c-10 -2 -18 -8 -18 -13 0 -5 -8 -9 -19 -9 -10 0 -24 -7 -31
-15 -25 -30 4 -39 135 -43 117 -4 125 -3 125 14 0 15 -2 16 -9 5 -11 -17 -41
-7 -41 13 0 21 -105 56 -142 48z"/>
<path d="M2915 10 c-3 -5 -1 -10 4 -10 6 0 11 5 11 10 0 6 -2 10 -4 10 -3 0
-8 -4 -11 -10z"/>
</g>
</svg>
